# This file uses centimeters as units for non-parametric coordinates.

mtllib crown.mtl
g default
v 0.978673 -0.500000 -0.565037
v 0.565037 -0.500000 -0.978673
v 0.000000 -0.500000 -1.130075
v -0.565037 -0.500000 -0.978673
v -0.978673 -0.500000 -0.565037
v -1.130075 -0.500000 0.000000
v -0.978673 -0.500000 0.565037
v -0.565037 -0.500000 0.978673
v 0.000000 -0.500000 1.130075
v 0.565037 -0.500000 0.978673
v 0.978673 -0.500000 0.565037
v 1.130075 -0.500000 0.000000
v 1.058697 0.457463 -0.611239
v 0.547212 -0.127171 -0.947799
v 0.000000 0.457463 -1.222479
v -0.547212 -0.127171 -0.947799
v -1.058697 0.457463 -0.611239
v -1.094424 -0.127171 0.000000
v -1.058697 0.457463 0.611239
v -0.547212 -0.127171 0.947799
v 0.000000 0.457463 1.222479
v 0.547212 -0.127171 0.947799
v 1.058697 0.457463 0.611239
v 1.094424 -0.127171 0.000000
v 1.090169 -0.500000 -0.629410
v 0.629410 -0.500000 -1.090169
v 0.593045 -0.098896 -1.027185
v 1.090169 0.500000 -0.629410
v 0.000000 -0.500000 -1.258819
v 0.000000 0.500000 -1.258819
v -0.629410 -0.500000 -1.090169
v -0.593045 -0.098896 -1.027185
v -1.090169 -0.500000 -0.629410
v -1.090169 0.500000 -0.629410
v -1.258819 -0.500000 0.000000
v -1.186091 -0.098896 0.000000
v -1.090169 -0.500000 0.629410
v -1.090169 0.500000 0.629410
v -0.629410 -0.500000 1.090169
v -0.593045 -0.098896 1.027185
v 0.000000 -0.500000 1.258819
v 0.000000 0.500000 1.258819
v 0.629410 -0.500000 1.090169
v 0.593045 -0.098896 1.027185
v 1.090169 -0.500000 0.629410
v 1.090169 0.500000 0.629410
v 1.258819 -0.500000 0.000000
v 1.186091 -0.098896 0.000000
vt 0.375000 0.312500
vt 0.395833 0.312500
vt 0.416667 0.312500
vt 0.437500 0.312500
vt 0.458333 0.312500
vt 0.479167 0.312500
vt 0.500000 0.312500
vt 0.520833 0.312500
vt 0.541667 0.312500
vt 0.562500 0.312500
vt 0.583333 0.312500
vt 0.604167 0.312500
vt 0.625000 0.312500
vt 0.375000 0.688440
vt 0.395833 0.688440
vt 0.416667 0.688440
vt 0.437500 0.688440
vt 0.458333 0.688440
vt 0.479167 0.688440
vt 0.500000 0.688440
vt 0.520833 0.688440
vt 0.541667 0.688440
vt 0.562500 0.688440
vt 0.583333 0.688440
vt 0.604167 0.688440
vt 0.625000 0.688440
vt 0.375000 0.312500
vt 0.395833 0.312500
vt 0.395833 0.688440
vt 0.375000 0.688440
vt 0.416667 0.312500
vt 0.416667 0.688440
vt 0.437500 0.312500
vt 0.437500 0.688440
vt 0.458333 0.312500
vt 0.458333 0.688440
vt 0.479167 0.312500
vt 0.479167 0.688440
vt 0.500000 0.312500
vt 0.500000 0.688440
vt 0.520833 0.312500
vt 0.520833 0.688440
vt 0.541667 0.312500
vt 0.541667 0.688440
vt 0.562500 0.312500
vt 0.562500 0.688440
vt 0.583333 0.312500
vt 0.583333 0.688440
vt 0.604167 0.312500
vt 0.604167 0.688440
vt 0.625000 0.312500
vt 0.625000 0.688440
vt 0.375000 0.312500
vt 0.395833 0.312500
vt 0.395833 0.688440
vt 0.375000 0.688440
vt 0.416667 0.312500
vt 0.416667 0.688440
vt 0.437500 0.312500
vt 0.437500 0.688440
vt 0.458333 0.312500
vt 0.458333 0.688440
vt 0.479167 0.312500
vt 0.479167 0.688440
vt 0.500000 0.312500
vt 0.500000 0.688440
vt 0.520833 0.312500
vt 0.520833 0.688440
vt 0.541667 0.312500
vt 0.541667 0.688440
vt 0.562500 0.312500
vt 0.562500 0.688440
vt 0.583333 0.312500
vt 0.583333 0.688440
vt 0.604167 0.312500
vt 0.604167 0.688440
vt 0.625000 0.312500
vt 0.625000 0.688440
vn 0.648706 0.050971 -0.759330
vn 0.648706 0.050971 -0.759330
vn 0.648706 0.050971 -0.759330
vn 0.648706 0.050971 -0.759330
vn 0.333246 0.050971 -0.941461
vn 0.333246 0.050971 -0.941461
vn 0.333246 0.050971 -0.941461
vn 0.333246 0.050971 -0.941461
vn -0.333246 0.050971 -0.941461
vn -0.333246 0.050971 -0.941461
vn -0.333246 0.050971 -0.941461
vn -0.333246 0.050971 -0.941461
vn -0.648706 0.050971 -0.759330
vn -0.648706 0.050971 -0.759330
vn -0.648706 0.050971 -0.759330
vn -0.648706 0.050971 -0.759330
vn -0.981952 0.050971 -0.182131
vn -0.981952 0.050971 -0.182131
vn -0.981952 0.050971 -0.182131
vn -0.981952 0.050971 -0.182131
vn -0.981952 0.050971 0.182131
vn -0.981952 0.050971 0.182131
vn -0.981952 0.050971 0.182131
vn -0.981952 0.050971 0.182131
vn -0.648706 0.050971 0.759330
vn -0.648706 0.050971 0.759330
vn -0.648706 0.050971 0.759330
vn -0.648706 0.050971 0.759330
vn -0.333246 0.050971 0.941461
vn -0.333246 0.050971 0.941461
vn -0.333246 0.050971 0.941461
vn -0.333246 0.050971 0.941461
vn 0.333246 0.050971 0.941461
vn 0.333246 0.050971 0.941461
vn 0.333246 0.050971 0.941461
vn 0.333246 0.050971 0.941461
vn 0.648706 0.050971 0.759330
vn 0.648706 0.050971 0.759330
vn 0.648706 0.050971 0.759330
vn 0.648706 0.050971 0.759330
vn 0.981952 0.050971 0.182131
vn 0.981952 0.050971 0.182131
vn 0.981952 0.050971 0.182131
vn 0.981952 0.050971 0.182131
vn 0.981952 0.050971 -0.182131
vn 0.981952 0.050971 -0.182131
vn 0.981952 0.050971 -0.182131
vn 0.981952 0.050971 -0.182131
vn -0.644096 0.038918 0.763954
vn -0.644096 0.038918 0.763954
vn -0.644096 0.038918 0.763954
vn -0.644096 0.038918 0.763954
vn -0.339555 0.038918 0.939781
vn -0.339555 0.038918 0.939781
vn -0.339555 0.038918 0.939781
vn -0.339555 0.038918 0.939781
vn 0.339555 0.038918 0.939781
vn 0.339555 0.038918 0.939781
vn 0.339555 0.038918 0.939781
vn 0.339555 0.038918 0.939781
vn 0.644097 0.038918 0.763954
vn 0.644096 0.038918 0.763954
vn 0.644096 0.038918 0.763954
vn 0.644096 0.038918 0.763954
vn 0.983652 0.038918 0.175827
vn 0.983652 0.038918 0.175827
vn 0.983652 0.038918 0.175827
vn 0.983652 0.038918 0.175827
vn 0.983652 0.038918 -0.175827
vn 0.983652 0.038918 -0.175827
vn 0.983652 0.038918 -0.175827
vn 0.983652 0.038918 -0.175827
vn 0.644096 0.038918 -0.763954
vn 0.644096 0.038918 -0.763954
vn 0.644096 0.038918 -0.763954
vn 0.644096 0.038918 -0.763954
vn 0.339555 0.038918 -0.939781
vn 0.339555 0.038918 -0.939781
vn 0.339555 0.038918 -0.939781
vn 0.339555 0.038918 -0.939781
vn -0.339555 0.038918 -0.939781
vn -0.339555 0.038918 -0.939781
vn -0.339555 0.038918 -0.939781
vn -0.339555 0.038918 -0.939781
vn -0.644097 0.038918 -0.763954
vn -0.644096 0.038918 -0.763954
vn -0.644096 0.038918 -0.763954
vn -0.644096 0.038918 -0.763954
vn -0.983652 0.038918 -0.175827
vn -0.983652 0.038918 -0.175827
vn -0.983652 0.038918 -0.175827
vn -0.983652 0.038918 -0.175827
vn -0.983652 0.038918 0.175827
vn -0.983652 0.038918 0.175827
vn -0.983652 0.038918 0.175827
vn -0.983652 0.038918 0.175827
vn 0.000000 -1.000000 0.000000
vn 0.000000 -1.000000 0.000000
vn 0.000000 -1.000000 0.000000
vn 0.000000 -1.000000 0.000000
vn -0.196581 0.919469 0.340488
vn -0.568421 0.754452 0.328178
vn -0.568421 0.754452 0.328178
vn -0.196581 0.919469 0.340489
vn 0.000000 -1.000000 0.000000
vn 0.000000 -1.000000 0.000000
vn 0.000000 0.754452 0.656356
vn 0.000000 0.754452 0.656356
vn 0.000000 -1.000000 0.000000
vn 0.000000 -1.000000 0.000000
vn 0.196581 0.919469 0.340488
vn 0.196581 0.919469 0.340489
vn 0.000000 -1.000000 0.000000
vn 0.000000 -1.000000 0.000000
vn 0.568421 0.754451 0.328178
vn 0.568421 0.754451 0.328178
vn 0.000000 -1.000000 0.000000
vn 0.000000 -1.000000 0.000000
vn 0.393163 0.919469 0.000000
vn 0.393163 0.919469 0.000000
vn 0.000000 -1.000000 0.000000
vn 0.000000 -1.000000 0.000000
vn 0.568421 0.754452 -0.328178
vn 0.568421 0.754452 -0.328178
vn 0.000000 -1.000000 0.000000
vn 0.000000 -1.000000 0.000000
vn 0.196581 0.919469 -0.340488
vn 0.196581 0.919469 -0.340489
vn 0.000000 -1.000000 0.000000
vn 0.000000 -1.000000 0.000000
vn 0.000000 0.754452 -0.656356
vn 0.000000 0.754452 -0.656356
vn 0.000000 -1.000000 0.000000
vn 0.000000 -1.000000 0.000000
vn -0.196581 0.919469 -0.340488
vn -0.196581 0.919469 -0.340489
vn 0.000000 -1.000000 0.000000
vn 0.000000 -1.000000 0.000000
vn -0.568421 0.754451 -0.328178
vn -0.568421 0.754451 -0.328178
vn 0.000000 -1.000000 0.000000
vn 0.000000 -1.000000 0.000000
vn -0.393163 0.919469 -0.000000
vn -0.393163 0.919469 -0.000000
s off
g pCylinder1
usemtl initialShadingGroup
f 25/53/1 26/54/2 27/55/3 28/56/4
f 26/54/5 29/57/6 30/58/7 27/55/8
f 29/57/9 31/59/10 32/60/11 30/58/12
f 31/59/13 33/61/14 34/62/15 32/60/16
f 33/61/17 35/63/18 36/64/19 34/62/20
f 35/63/21 37/65/22 38/66/23 36/64/24
f 37/65/25 39/67/26 40/68/27 38/66/28
f 39/67/29 41/69/30 42/70/31 40/68/32
f 41/69/33 43/71/34 44/72/35 42/70/36
f 43/71/37 45/73/38 46/74/39 44/72/40
f 45/73/41 47/75/42 48/76/43 46/74/44
f 47/75/45 25/77/46 28/78/47 48/76/48
f 1/27/49 13/30/50 14/29/51 2/28/52
f 2/28/53 14/29/54 15/32/55 3/31/56
f 3/31/57 15/32/58 16/34/59 4/33/60
f 4/33/61 16/34/62 17/36/63 5/35/64
f 5/35/65 17/36/66 18/38/67 6/37/68
f 6/37/69 18/38/70 19/40/71 7/39/72
f 7/39/73 19/40/74 20/42/75 8/41/76
f 8/41/77 20/42/78 21/44/79 9/43/80
f 9/43/81 21/44/82 22/46/83 10/45/84
f 10/45/85 22/46/86 23/48/87 11/47/88
f 11/47/89 23/48/90 24/50/91 12/49/92
f 12/49/93 24/50/94 13/52/95 1/51/96
s 1
f 1/1/97 2/2/98 26/54/99 25/53/100
s 2
f 14/15/101 13/14/102 28/56/103 27/55/104
s 1
f 2/2/98 3/3/105 29/57/106 26/54/99
s 2
f 15/16/107 14/15/101 27/55/104 30/58/108
s 1
f 3/3/105 4/4/109 31/59/110 29/57/106
s 2
f 16/17/111 15/16/107 30/58/108 32/60/112
s 1
f 4/4/109 5/5/113 33/61/114 31/59/110
s 2
f 17/18/115 16/17/111 32/60/112 34/62/116
s 1
f 5/5/113 6/6/117 35/63/118 33/61/114
s 2
f 18/19/119 17/18/115 34/62/116 36/64/120
s 1
f 6/6/117 7/7/121 37/65/122 35/63/118
s 2
f 19/20/123 18/19/119 36/64/120 38/66/124
s 1
f 7/7/121 8/8/125 39/67/126 37/65/122
s 2
f 20/21/127 19/20/123 38/66/124 40/68/128
s 1
f 8/8/125 9/9/129 41/69/130 39/67/126
s 2
f 21/22/131 20/21/127 40/68/128 42/70/132
s 1
f 9/9/129 10/10/133 43/71/134 41/69/130
s 2
f 22/23/135 21/22/131 42/70/132 44/72/136
s 1
f 10/10/133 11/11/137 45/73/138 43/71/134
s 2
f 23/24/139 22/23/135 44/72/136 46/74/140
s 1
f 11/11/137 12/12/141 47/75/142 45/73/138
s 2
f 24/25/143 23/24/139 46/74/140 48/76/144
s 1
f 12/12/141 1/13/97 25/77/100 47/75/142
s 2
f 13/26/102 24/25/143 48/76/144 28/78/103
