# Blender v3.0.0 OBJ File: ''
# www.blender.org
mtllib hollowCylinder.mtl
o Cylinder
v -0.000000 -1.898278 -4.748107
v -0.000000 3.002826 -4.748107
v 0.926310 -1.898278 -4.656873
v 0.926310 3.002826 -4.656873
v 1.817022 -1.898278 -4.386679
v 1.817022 3.002826 -4.386679
v 2.637907 -1.898278 -3.947906
v 2.637907 3.002826 -3.947906
v 3.357418 -1.898278 -3.357419
v 3.357418 3.002826 -3.357419
v 3.947906 -1.898278 -2.637907
v 3.947906 3.002826 -2.637907
v 4.386679 -1.898278 -1.817022
v 4.386679 3.002826 -1.817022
v 4.656873 -1.898278 -0.926310
v 4.656873 3.002826 -0.926310
v 4.748107 -1.898278 0.000000
v 4.748107 3.002826 0.000000
v 4.656873 -1.898278 0.926310
v 4.656873 3.002826 0.926310
v 4.386679 -1.898278 1.817022
v 4.386679 3.002826 1.817022
v 3.947906 -1.898278 2.637907
v 3.947906 3.002826 2.637907
v 3.357418 -1.898278 3.357419
v 3.357418 3.002826 3.357419
v 2.637906 -1.898278 3.947907
v 2.637906 3.002826 3.947907
v 1.817022 -1.898278 4.386679
v 1.817022 3.002826 4.386679
v 0.926310 -1.898278 4.656874
v 0.926310 3.002826 4.656874
v -0.000001 -1.898278 4.748107
v -0.000001 3.002826 4.748107
v -0.926309 -1.898278 4.656874
v -0.926309 3.002826 4.656874
v -1.817022 -1.898278 4.386679
v -1.817022 3.002826 4.386679
v -2.637908 -1.898278 3.947906
v -2.637908 3.002826 3.947906
v -3.357419 -1.898278 3.357419
v -3.357419 3.002826 3.357419
v -3.947906 -1.898278 2.637908
v -3.947906 3.002826 2.637908
v -4.386679 -1.898278 1.817023
v -4.386679 3.002826 1.817023
v -4.656874 -1.898278 0.926310
v -4.656874 3.002826 0.926310
v -4.748107 -1.898278 -0.000000
v -4.748107 3.002826 -0.000000
v -4.656874 -1.898278 -0.926310
v -4.656874 3.002826 -0.926310
v -4.386679 -1.898278 -1.817023
v -4.386679 3.002826 -1.817023
v -3.947907 -1.898278 -2.637906
v -3.947907 3.002826 -2.637906
v -3.357419 -1.898278 -3.357418
v -3.357419 3.002826 -3.357418
v -2.637908 -1.898278 -3.947906
v -2.637908 3.002826 -3.947906
v -1.817022 -1.898278 -4.386679
v -1.817022 3.002826 -4.386679
v -0.926309 -1.898278 -4.656874
v -0.926309 3.002826 -4.656874
v -0.000000 3.002826 -4.748107
v 0.926310 3.002826 -4.656873
v 1.817022 3.002826 -4.386679
v 2.637907 3.002826 -3.947906
v 3.357418 3.002826 -3.357419
v 3.947906 3.002826 -2.637907
v 4.386679 3.002826 -1.817022
v 4.656873 3.002826 -0.926310
v 4.748107 3.002826 0.000000
v 4.656873 3.002826 0.926310
v 4.386679 3.002826 1.817022
v 3.947906 3.002826 2.637907
v 3.357418 3.002826 3.357419
v 2.637906 3.002826 3.947907
v 1.817022 3.002826 4.386679
v 0.926310 3.002826 4.656874
v -0.000001 3.002826 4.748107
v -0.926309 3.002826 4.656874
v -1.817022 3.002826 4.386679
v -2.637908 3.002826 3.947906
v -3.357419 3.002826 3.357419
v -3.947906 3.002826 2.637908
v -4.386679 3.002826 1.817023
v -4.656874 3.002826 0.926310
v -4.748107 3.002826 -0.000000
v -4.656874 3.002826 -0.926310
v -4.386679 3.002826 -1.817023
v -3.947907 3.002826 -2.637906
v -3.357419 3.002826 -3.357418
v -2.637908 3.002826 -3.947906
v -1.817022 3.002826 -4.386679
v -0.926309 3.002826 -4.656874
v -0.000000 -1.898278 -3.462966
v 0.675591 -1.898278 -3.396426
v 0.675591 3.002826 -3.396426
v -0.000000 3.002826 -3.462966
v 1.325220 -1.898278 -3.199363
v 1.325220 3.002826 -3.199363
v 1.923921 -1.898278 -2.879351
v 1.923921 3.002826 -2.879351
v 2.448687 -1.898278 -2.448687
v 2.448687 3.002826 -2.448687
v 2.879351 -1.898278 -1.923921
v 2.879351 3.002826 -1.923921
v 3.199363 -1.898278 -1.325220
v 3.199363 3.002826 -1.325220
v 3.396426 -1.898278 -0.675591
v 3.396426 3.002826 -0.675591
v 3.462966 -1.898278 0.000000
v 3.462966 3.002826 0.000000
v 3.396426 -1.898278 0.675591
v 3.396426 3.002826 0.675591
v 3.199363 -1.898278 1.325220
v 3.199363 3.002826 1.325220
v 2.879351 -1.898278 1.923921
v 2.879351 3.002826 1.923921
v 2.448687 -1.898278 2.448687
v 2.448687 3.002826 2.448687
v 1.923920 -1.898278 2.879351
v 1.923920 3.002826 2.879351
v 1.325220 -1.898278 3.199363
v 1.325220 3.002826 3.199363
v 0.675591 -1.898278 3.396426
v 0.675591 3.002826 3.396426
v -0.000000 -1.898278 3.462966
v -0.000000 3.002826 3.462966
v -0.675591 -1.898278 3.396426
v -0.675591 3.002826 3.396426
v -1.325220 -1.898278 3.199363
v -1.325220 3.002826 3.199363
v -1.923921 -1.898278 2.879351
v -1.923921 3.002826 2.879351
v -2.448687 -1.898278 2.448687
v -2.448687 3.002826 2.448687
v -2.879351 -1.898278 1.923922
v -2.879351 3.002826 1.923922
v -3.199364 -1.898278 1.325220
v -3.199364 3.002826 1.325220
v -3.396426 -1.898278 0.675591
v -3.396426 3.002826 0.675591
v -3.462966 -1.898278 -0.000000
v -3.462966 3.002826 -0.000000
v -3.396426 -1.898278 -0.675591
v -3.396426 3.002826 -0.675591
v -3.199364 -1.898278 -1.325220
v -3.199364 3.002826 -1.325220
v -2.879352 -1.898278 -1.923920
v -2.879352 3.002826 -1.923920
v -2.448688 -1.898278 -2.448686
v -2.448688 3.002826 -2.448686
v -1.923921 -1.898278 -2.879351
v -1.923921 3.002826 -2.879351
v -1.325220 -1.898278 -3.199364
v -1.325220 3.002826 -3.199364
v -0.675591 -1.898278 -3.396426
v -0.675591 3.002826 -3.396426
v 0.675591 3.002826 -3.396426
v -0.000000 3.002826 -3.462966
v 1.325220 3.002826 -3.199363
v 1.923921 3.002826 -2.879351
v 2.448687 3.002826 -2.448687
v 2.879351 3.002826 -1.923921
v 3.199363 3.002826 -1.325220
v 3.396426 3.002826 -0.675591
v 3.462966 3.002826 0.000000
v 3.396426 3.002826 0.675591
v 3.199363 3.002826 1.325220
v 2.879351 3.002826 1.923921
v 2.448687 3.002826 2.448687
v 1.923920 3.002826 2.879351
v 1.325220 3.002826 3.199363
v 0.675591 3.002826 3.396426
v -0.000000 3.002826 3.462966
v -0.675591 3.002826 3.396426
v -1.325220 3.002826 3.199363
v -1.923921 3.002826 2.879351
v -2.448687 3.002826 2.448687
v -2.879351 3.002826 1.923922
v -3.199364 3.002826 1.325220
v -3.396426 3.002826 0.675591
v -3.462966 3.002826 -0.000000
v -3.396426 3.002826 -0.675591
v -3.199364 3.002826 -1.325220
v -2.879352 3.002826 -1.923920
v -2.448688 3.002826 -2.448686
v -1.923921 3.002826 -2.879351
v -1.325220 3.002826 -3.199364
v -0.675591 3.002826 -3.396426
vt 1.000000 0.500000
vt 1.000000 1.000000
vt 0.968750 1.000000
vt 0.968750 0.500000
vt 0.937500 1.000000
vt 0.937500 0.500000
vt 0.906250 1.000000
vt 0.906250 0.500000
vt 0.875000 1.000000
vt 0.875000 0.500000
vt 0.843750 1.000000
vt 0.843750 0.500000
vt 0.812500 1.000000
vt 0.812500 0.500000
vt 0.781250 1.000000
vt 0.781250 0.500000
vt 0.750000 1.000000
vt 0.750000 0.500000
vt 0.718750 1.000000
vt 0.718750 0.500000
vt 0.687500 1.000000
vt 0.687500 0.500000
vt 0.656250 1.000000
vt 0.656250 0.500000
vt 0.625000 1.000000
vt 0.625000 0.500000
vt 0.593750 1.000000
vt 0.593750 0.500000
vt 0.562500 1.000000
vt 0.562500 0.500000
vt 0.531250 1.000000
vt 0.531250 0.500000
vt 0.500000 1.000000
vt 0.500000 0.500000
vt 0.468750 1.000000
vt 0.468750 0.500000
vt 0.437500 1.000000
vt 0.437500 0.500000
vt 0.406250 1.000000
vt 0.406250 0.500000
vt 0.375000 1.000000
vt 0.375000 0.500000
vt 0.343750 1.000000
vt 0.343750 0.500000
vt 0.312500 1.000000
vt 0.312500 0.500000
vt 0.281250 1.000000
vt 0.281250 0.500000
vt 0.250000 1.000000
vt 0.250000 0.500000
vt 0.218750 1.000000
vt 0.218750 0.500000
vt 0.187500 1.000000
vt 0.187500 0.500000
vt 0.156250 1.000000
vt 0.156250 0.500000
vt 0.125000 1.000000
vt 0.125000 0.500000
vt 0.093750 1.000000
vt 0.093750 0.500000
vt 0.062500 1.000000
vt 0.062500 0.500000
vt 0.031250 1.000000
vt 0.031250 0.500000
vt 0.000000 1.000000
vt 0.000000 0.500000
vt 0.968750 1.000000
vt 0.937500 1.000000
vt 0.687500 1.000000
vt 0.656250 1.000000
vt 0.406250 1.000000
vt 0.375000 1.000000
vt 0.125000 1.000000
vt 0.093750 1.000000
vt 0.812500 1.000000
vt 0.781250 1.000000
vt 0.531250 1.000000
vt 0.500000 1.000000
vt 0.250000 1.000000
vt 0.218750 1.000000
vt 0.906250 1.000000
vt 0.625000 1.000000
vt 0.343750 1.000000
vt 0.062500 1.000000
vt 0.750000 1.000000
vt 0.468750 1.000000
vt 0.187500 1.000000
vt 0.875000 1.000000
vt 0.593750 1.000000
vt 0.312500 1.000000
vt 0.031250 1.000000
vt 0.718750 1.000000
vt 0.437500 1.000000
vt 0.156250 1.000000
vt 0.843750 1.000000
vt 0.562500 1.000000
vt 0.281250 1.000000
vt 1.000000 1.000000
vt 0.000000 1.000000
vt 1.000000 0.500000
vt 0.968750 0.500000
vt 0.968750 1.000000
vt 1.000000 1.000000
vt 0.937500 0.500000
vt 0.937500 1.000000
vt 0.906250 0.500000
vt 0.906250 1.000000
vt 0.875000 0.500000
vt 0.875000 1.000000
vt 0.843750 0.500000
vt 0.843750 1.000000
vt 0.812500 0.500000
vt 0.812500 1.000000
vt 0.781250 0.500000
vt 0.781250 1.000000
vt 0.750000 0.500000
vt 0.750000 1.000000
vt 0.718750 0.500000
vt 0.718750 1.000000
vt 0.687500 0.500000
vt 0.687500 1.000000
vt 0.656250 0.500000
vt 0.656250 1.000000
vt 0.625000 0.500000
vt 0.625000 1.000000
vt 0.593750 0.500000
vt 0.593750 1.000000
vt 0.562500 0.500000
vt 0.562500 1.000000
vt 0.531250 0.500000
vt 0.531250 1.000000
vt 0.500000 0.500000
vt 0.500000 1.000000
vt 0.468750 0.500000
vt 0.468750 1.000000
vt 0.437500 0.500000
vt 0.437500 1.000000
vt 0.406250 0.500000
vt 0.406250 1.000000
vt 0.375000 0.500000
vt 0.375000 1.000000
vt 0.343750 0.500000
vt 0.343750 1.000000
vt 0.312500 0.500000
vt 0.312500 1.000000
vt 0.281250 0.500000
vt 0.281250 1.000000
vt 0.250000 0.500000
vt 0.250000 1.000000
vt 0.218750 0.500000
vt 0.218750 1.000000
vt 0.187500 0.500000
vt 0.187500 1.000000
vt 0.156250 0.500000
vt 0.156250 1.000000
vt 0.125000 0.500000
vt 0.125000 1.000000
vt 0.093750 0.500000
vt 0.093750 1.000000
vt 0.062500 0.500000
vt 0.062500 1.000000
vt 0.031250 0.500000
vt 0.031250 1.000000
vt 0.000000 0.500000
vt 0.000000 1.000000
vt 0.937500 1.000000
vt 0.968750 1.000000
vt 0.656250 1.000000
vt 0.687500 1.000000
vt 0.375000 1.000000
vt 0.406250 1.000000
vt 0.093750 1.000000
vt 0.125000 1.000000
vt 0.781250 1.000000
vt 0.812500 1.000000
vt 0.500000 1.000000
vt 0.531250 1.000000
vt 0.218750 1.000000
vt 0.250000 1.000000
vt 0.906250 1.000000
vt 0.625000 1.000000
vt 0.343750 1.000000
vt 0.062500 1.000000
vt 0.750000 1.000000
vt 0.468750 1.000000
vt 0.187500 1.000000
vt 0.875000 1.000000
vt 0.593750 1.000000
vt 0.312500 1.000000
vt 0.031250 1.000000
vt 0.718750 1.000000
vt 0.437500 1.000000
vt 0.156250 1.000000
vt 0.843750 1.000000
vt 0.562500 1.000000
vt 0.281250 1.000000
vt 1.000000 1.000000
vt 0.000000 1.000000
vn 0.0980 0.0000 -0.9952
vn 0.2903 0.0000 -0.9569
vn 0.4714 0.0000 -0.8819
vn 0.6344 0.0000 -0.7730
vn 0.7730 0.0000 -0.6344
vn 0.8819 0.0000 -0.4714
vn 0.9569 0.0000 -0.2903
vn 0.9952 0.0000 -0.0980
vn 0.9952 0.0000 0.0980
vn 0.9569 0.0000 0.2903
vn 0.8819 0.0000 0.4714
vn 0.7730 0.0000 0.6344
vn 0.6344 0.0000 0.7730
vn 0.4714 0.0000 0.8819
vn 0.2903 0.0000 0.9569
vn 0.0980 0.0000 0.9952
vn -0.0980 0.0000 0.9952
vn -0.2903 0.0000 0.9569
vn -0.4714 0.0000 0.8819
vn -0.6344 0.0000 0.7730
vn -0.7730 0.0000 0.6344
vn -0.8819 0.0000 0.4714
vn -0.9569 0.0000 0.2903
vn -0.9952 0.0000 0.0980
vn -0.9952 0.0000 -0.0980
vn -0.9569 0.0000 -0.2903
vn -0.8819 0.0000 -0.4714
vn -0.7730 0.0000 -0.6344
vn -0.6344 0.0000 -0.7730
vn -0.4714 0.0000 -0.8819
vn -0.2903 0.0000 -0.9569
vn -0.0980 0.0000 -0.9952
vn 0.0000 0.0000 1.0000
vn 0.0000 -0.0078 -1.0000
vn 0.0000 -1.0000 0.0000
vn 0.0000 0.0188 0.9998
vn 0.0000 1.0000 0.0000
vn 0.0000 -0.0462 -0.9989
vn 0.0000 0.0078 -1.0000
usemtl None
s off
f 1/1/1 2/2/1 4/3/1 3/4/1
f 3/4/2 4/3/2 6/5/2 5/6/2
f 5/6/3 6/5/3 8/7/3 7/8/3
f 7/8/4 8/7/4 10/9/4 9/10/4
f 9/10/5 10/9/5 12/11/5 11/12/5
f 11/12/6 12/11/6 14/13/6 13/14/6
f 13/14/7 14/13/7 16/15/7 15/16/7
f 15/16/8 16/15/8 18/17/8 17/18/8
f 17/18/9 18/17/9 20/19/9 19/20/9
f 19/20/10 20/19/10 22/21/10 21/22/10
f 21/22/11 22/21/11 24/23/11 23/24/11
f 23/24/12 24/23/12 26/25/12 25/26/12
f 25/26/13 26/25/13 28/27/13 27/28/13
f 27/28/14 28/27/14 30/29/14 29/30/14
f 29/30/15 30/29/15 32/31/15 31/32/15
f 31/32/16 32/31/16 34/33/16 33/34/16
f 33/34/17 34/33/17 36/35/17 35/36/17
f 35/36/18 36/35/18 38/37/18 37/38/18
f 37/38/19 38/37/19 40/39/19 39/40/19
f 39/40/20 40/39/20 42/41/20 41/42/20
f 41/42/21 42/41/21 44/43/21 43/44/21
f 43/44/22 44/43/22 46/45/22 45/46/22
f 45/46/23 46/45/23 48/47/23 47/48/23
f 47/48/24 48/47/24 50/49/24 49/50/24
f 49/50/25 50/49/25 52/51/25 51/52/25
f 51/52/26 52/51/26 54/53/26 53/54/26
f 53/54/27 54/53/27 56/55/27 55/56/27
f 55/56/28 56/55/28 58/57/28 57/58/28
f 57/58/29 58/57/29 60/59/29 59/60/29
f 59/60/30 60/59/30 62/61/30 61/62/30
f 61/62/31 62/61/31 64/63/31 63/64/31
f 63/64/32 64/63/32 2/65/32 1/66/32
f 6/5/33 4/3/33 66/67/33 67/68/33
f 24/23/33 22/21/33 75/69/33 76/70/33
f 42/41/33 40/39/33 84/71/33 85/72/33
f 60/59/33 58/57/33 93/73/33 94/74/33
f 16/15/33 14/13/33 71/75/33 72/76/33
f 34/33/33 32/31/33 80/77/33 81/78/33
f 52/51/33 50/49/33 89/79/33 90/80/33
f 8/7/33 6/5/33 67/68/33 68/81/33
f 26/25/33 24/23/33 76/70/33 77/82/33
f 44/43/33 42/41/33 85/72/33 86/83/33
f 62/61/33 60/59/33 94/74/33 95/84/33
f 18/17/33 16/15/33 72/76/33 73/85/33
f 36/35/33 34/33/33 81/78/33 82/86/33
f 54/53/33 52/51/33 90/80/33 91/87/33
f 10/9/33 8/7/33 68/81/33 69/88/33
f 28/27/33 26/25/33 77/82/33 78/89/33
f 46/45/33 44/43/33 86/83/33 87/90/33
f 64/63/33 62/61/33 95/84/33 96/91/33
f 20/19/33 18/17/33 73/85/33 74/92/33
f 38/37/33 36/35/33 82/86/33 83/93/33
f 56/55/33 54/53/33 91/87/33 92/94/33
f 12/11/33 10/9/33 69/88/33 70/95/33
f 30/29/33 28/27/33 78/89/33 79/96/33
f 48/47/33 46/45/33 87/90/33 88/97/33
f 4/3/33 2/2/33 65/98/33 66/67/33
f 2/65/33 64/63/33 96/91/33 65/99/33
f 22/21/33 20/19/33 74/92/33 75/69/33
f 40/39/33 38/37/33 83/93/33 84/71/33
f 58/57/33 56/55/33 92/94/33 93/73/33
f 14/13/33 12/11/33 70/95/33 71/75/33
f 32/31/33 30/29/33 79/96/33 80/77/33
f 50/49/33 48/47/33 88/97/33 89/79/33
f 97/100/17 98/101/17 99/102/17 100/103/17
f 98/101/18 101/104/18 102/105/18 99/102/18
f 101/104/19 103/106/19 104/107/19 102/105/19
f 103/106/20 105/108/20 106/109/20 104/107/20
f 105/108/21 107/110/21 108/111/21 106/109/21
f 107/110/22 109/112/22 110/113/22 108/111/22
f 109/112/23 111/114/23 112/115/23 110/113/23
f 111/114/24 113/116/24 114/117/24 112/115/24
f 113/116/25 115/118/25 116/119/25 114/117/25
f 115/118/26 117/120/26 118/121/26 116/119/26
f 117/120/27 119/122/27 120/123/27 118/121/27
f 119/122/28 121/124/28 122/125/28 120/123/28
f 121/124/29 123/126/29 124/127/29 122/125/29
f 123/126/30 125/128/30 126/129/30 124/127/30
f 125/128/31 127/130/31 128/131/31 126/129/31
f 127/130/32 129/132/32 130/133/32 128/131/32
f 129/132/1 131/134/1 132/135/1 130/133/1
f 131/134/2 133/136/2 134/137/2 132/135/2
f 133/136/3 135/138/3 136/139/3 134/137/3
f 135/138/4 137/140/4 138/141/4 136/139/4
f 137/140/5 139/142/5 140/143/5 138/141/5
f 139/142/6 141/144/6 142/145/6 140/143/6
f 141/144/7 143/146/7 144/147/7 142/145/7
f 143/146/8 145/148/8 146/149/8 144/147/8
f 145/148/9 147/150/9 148/151/9 146/149/9
f 147/150/10 149/152/10 150/153/10 148/151/10
f 149/152/11 151/154/11 152/155/11 150/153/11
f 151/154/12 153/156/12 154/157/12 152/155/12
f 153/156/13 155/158/13 156/159/13 154/157/13
f 155/158/14 157/160/14 158/161/14 156/159/14
f 157/160/15 159/162/15 160/163/15 158/161/15
f 159/162/16 97/164/16 100/165/16 160/163/16
f 102/105/33 163/166/33 161/167/33 99/102/33
f 120/123/33 172/168/33 171/169/33 118/121/33
f 138/141/33 181/170/33 180/171/33 136/139/33
f 156/159/33 190/172/33 189/173/33 154/157/33
f 112/115/33 168/174/33 167/175/33 110/113/33
f 130/133/34 177/176/34 176/177/34 128/131/34
f 148/151/35 186/178/35 185/179/35 146/149/35
f 104/107/33 164/180/33 163/166/33 102/105/33
f 122/125/33 173/181/33 172/168/33 120/123/33
f 140/143/33 182/182/33 181/170/33 138/141/33
f 158/161/33 191/183/33 190/172/33 156/159/33
f 114/117/33 169/184/33 168/174/33 112/115/33
f 132/135/36 178/185/36 177/176/36 130/133/36
f 150/153/33 187/186/33 186/178/33 148/151/33
f 106/109/33 165/187/33 164/180/33 104/107/33
f 124/127/33 174/188/33 173/181/33 122/125/33
f 142/145/33 183/189/33 182/182/33 140/143/33
f 160/163/33 192/190/33 191/183/33 158/161/33
f 116/119/37 170/191/37 169/184/37 114/117/37
f 134/137/33 179/192/33 178/185/33 132/135/33
f 152/155/33 188/193/33 187/186/33 150/153/33
f 108/111/33 166/194/33 165/187/33 106/109/33
f 126/129/33 175/195/33 174/188/33 124/127/33
f 144/147/33 184/196/33 183/189/33 142/145/33
f 99/102/38 161/167/38 162/197/38 100/103/38
f 100/165/39 162/198/39 192/190/39 160/163/39
f 118/121/33 171/169/33 170/191/33 116/119/33
f 136/139/33 180/171/33 179/192/33 134/137/33
f 154/157/33 189/173/33 188/193/33 152/155/33
f 110/113/33 167/175/33 166/194/33 108/111/33
f 128/131/33 176/177/33 175/195/33 126/129/33
f 146/149/33 185/179/33 184/196/33 144/147/33
f 25/26/35 121/124/35 119/122/35 23/24/35
f 82/86/37 178/185/37 179/192/37 83/93/37
f 43/44/35 139/142/35 137/140/35 41/42/35
f 83/93/37 179/192/37 180/171/37 84/71/37
f 61/62/35 157/160/35 155/158/35 59/60/35
f 9/10/35 105/108/35 103/106/35 7/8/35
f 84/71/37 180/171/37 181/170/37 85/72/37
f 27/28/35 123/126/35 121/124/35 25/26/35
f 85/72/37 181/170/37 182/182/37 86/83/37
f 45/46/35 141/144/35 139/142/35 43/44/35
f 86/83/37 182/182/37 183/189/37 87/90/37
f 63/64/35 159/162/35 157/160/35 61/62/35
f 11/12/35 107/110/35 105/108/35 9/10/35
f 87/90/37 183/189/37 184/196/37 88/97/37
f 29/30/35 125/128/35 123/126/35 27/28/35
f 88/97/37 184/196/37 185/179/37 89/79/37
f 47/48/35 143/146/35 141/144/35 45/46/35
f 89/79/37 185/179/37 186/178/37 90/80/37
f 1/66/35 97/164/35 159/162/35 63/64/35
f 13/14/35 109/112/35 107/110/35 11/12/35
f 90/80/37 186/178/37 187/186/37 91/87/37
f 31/32/35 127/130/35 125/128/35 29/30/35
f 91/87/37 187/186/37 188/193/37 92/94/37
f 65/98/37 162/197/37 161/167/37 66/67/37
f 49/50/35 145/148/35 143/146/35 47/48/35
f 92/94/37 188/193/37 189/173/37 93/73/37
f 66/67/37 161/167/37 163/166/37 67/68/37
f 15/16/35 111/114/35 109/112/35 13/14/35
f 93/73/37 189/173/37 190/172/37 94/74/37
f 67/68/37 163/166/37 164/180/37 68/81/37
f 33/34/35 129/132/35 127/130/35 31/32/35
f 94/74/37 190/172/37 191/183/37 95/84/37
f 68/81/37 164/180/37 165/187/37 69/88/37
f 51/52/35 147/150/35 145/148/35 49/50/35
f 95/84/37 191/183/37 192/190/37 96/91/37
f 69/88/37 165/187/37 166/194/37 70/95/37
f 17/18/35 113/116/35 111/114/35 15/16/35
f 96/91/37 192/190/37 162/198/37 65/99/37
f 70/95/37 166/194/37 167/175/37 71/75/37
f 35/36/35 131/134/35 129/132/35 33/34/35
f 71/75/37 167/175/37 168/174/37 72/76/37
f 53/54/35 149/152/35 147/150/35 51/52/35
f 72/76/37 168/174/37 169/184/37 73/85/37
f 19/20/35 115/118/35 113/116/35 17/18/35
f 73/85/37 169/184/37 170/191/37 74/92/37
f 37/38/35 133/136/35 131/134/35 35/36/35
f 3/4/35 98/101/35 97/100/35 1/1/35
f 74/92/37 170/191/37 171/169/37 75/69/37
f 55/56/35 151/154/35 149/152/35 53/54/35
f 75/69/37 171/169/37 172/168/37 76/70/37
f 21/22/35 117/120/35 115/118/35 19/20/35
f 76/70/37 172/168/37 173/181/37 77/82/37
f 39/40/35 135/138/35 133/136/35 37/38/35
f 77/82/37 173/181/37 174/188/37 78/89/37
f 57/58/35 153/156/35 151/154/35 55/56/35
f 5/6/35 101/104/35 98/101/35 3/4/35
f 78/89/37 174/188/37 175/195/37 79/96/37
f 23/24/35 119/122/35 117/120/35 21/22/35
f 79/96/37 175/195/37 176/177/37 80/77/37
f 41/42/35 137/140/35 135/138/35 39/40/35
f 80/77/37 176/177/37 177/176/37 81/78/37
f 59/60/35 155/158/35 153/156/35 57/58/35
f 7/8/35 103/106/35 101/104/35 5/6/35
f 81/78/37 177/176/37 178/185/37 82/86/37
